<?xml version="1.0"?>
<svg version="1.1" xmlns="http://www.w3.org/2000/svg" xmlns:xlink="http://www.w3.org/1999/xlink" width="640" height="480">
    <desc iVinci="yes" version="4.6" gridStep="20" showGrid="no" snapToGrid="no" codePlatform="0"/>
    <g id="Layer1" name="Layer 1" opacity="1">
        <g id="Shape1">
            <desc shapeID="1" type="0" basicInfo-basicType="4" basicInfo-roundedRectRadius="12" basicInfo-polygonSides="6" basicInfo-starPoints="5" bounding="rect(-81,-81,162,162)" text="" font-familyName="Helvetica Neue" font-pixelSize="100" font-bold="0" font-underline="0" font-alignment="1" strokeStyle="0" markerStart="0" markerEnd="0" shadowEnabled="0" shadowOffsetX="0" shadowOffsetY="2" shadowBlur="4" shadowOpacity="160" blurEnabled="0" blurRadius="4" transform="matrix(1,0,0,1,320,240)" pers-center="0,0" pers-size="0,0" pers-start="0,0" pers-end="0,0" locked="0" mesh="" flag=""/>
            <path id="shapePath1" d="M239,240 C239,195.265 275.265,159 320,159 C364.735,159 401,195.265 401,240 C401,284.735 364.735,321 320,321 C275.265,321 239,284.735 239,240 Z" style="stroke:#323232;stroke-opacity:1;stroke-width:1;stroke-linejoin:miter;stroke-miterlimit:2;stroke-linecap:round;fill:none;"/>
        </g>
    </g>
    <g id="Layer2" name="Layer 2" opacity="1">
        <g id="Shape2">
            <desc shapeID="2" type="2" basicInfo-basicType="0" basicInfo-roundedRectRadius="12" basicInfo-polygonSides="6" basicInfo-starPoints="5" bounding="rect(-44.2625,-33.173,88.5251,66.3461)" text="/..." font-familyName="Nanum Gothic" font-pixelSize="70" font-bold="0" font-underline="0" font-alignment="1" strokeStyle="0" markerStart="0" markerEnd="0" shadowEnabled="0" shadowOffsetX="0" shadowOffsetY="2" shadowBlur="4" shadowOpacity="160" blurEnabled="0" blurRadius="4" transform="matrix(1,0,0,1,322.716,236.816)" pers-center="0,0" pers-size="0,0" pers-start="0,0" pers-end="0,0" locked="0" mesh="" flag=""/>
            <path id="shapePath2" d="M302.994,210.775 C303.554,210.775 303.869,210.822 303.939,210.915 C304.009,211.008 303.95,211.335 303.764,211.895 L284.234,268.315 C284.047,268.782 283.907,269.05 283.814,269.12 C283.72,269.19 283.417,269.225 282.904,269.225 L279.964,269.225 C279.404,269.225 279.089,269.178 279.019,269.085 C278.949,268.992 279.007,268.688 279.194,268.175 L298.724,211.825 C298.91,211.312 299.062,211.008 299.179,210.915 C299.295,210.822 299.657,210.775 300.264,210.775 L302.994,210.775 M311.604,263.835 C311.604,262.855 311.942,262.027 312.619,261.35 C313.295,260.673 314.124,260.335 315.104,260.335 C316.084,260.335 316.912,260.673 317.589,261.35 C318.265,262.027 318.604,262.855 318.604,263.835 C318.604,264.815 318.265,265.643 317.589,266.32 C316.912,266.997 316.084,267.335 315.104,267.335 C314.124,267.335 313.295,266.997 312.619,266.32 C311.942,265.643 311.604,264.815 311.604,263.835 M332.807,263.835 C332.807,262.855 333.145,262.027 333.822,261.35 C334.498,260.673 335.327,260.335 336.307,260.335 C337.287,260.335 338.115,260.673 338.792,261.35 C339.468,262.027 339.807,262.855 339.807,263.835 C339.807,264.815 339.468,265.643 338.792,266.32 C338.115,266.997 337.287,267.335 336.307,267.335 C335.327,267.335 334.498,266.997 333.822,266.32 C333.145,265.643 332.807,264.815 332.807,263.835 M354.01,263.835 C354.01,262.855 354.348,262.027 355.025,261.35 C355.702,260.673 356.53,260.335 357.51,260.335 C358.49,260.335 359.318,260.673 359.995,261.35 C360.672,262.027 361.01,262.855 361.01,263.835 C361.01,264.815 360.672,265.643 359.995,266.32 C359.318,266.997 358.49,267.335 357.51,267.335 C356.53,267.335 355.702,266.997 355.025,266.32 C354.348,265.643 354.01,264.815 354.01,263.835 Z" style="stroke:none;fill-rule:nonzero;fill:#000000;fill-opacity:1;"/>
        </g>
    </g>
</svg>
